<svg width="1920" height="1920" xmlns="http://www.w3.org/2000/svg">

 <g>
  <title>Layer 1</title>
  <path fill="#fff" id="Layer_7" d="m1607.8,217.4c-3.1,-0.3 -6.2,-0.4 -9.4,-0.4l-1067.7,0l4.8,0c0.5,0 0.9,0 1.4,0.1c0.4,0 0.8,0 1.1,0.1c0.5,0 1.1,0.1 1.6,0.1c0.3,0 0.5,0.1 0.8,0.1c0.7,0.1 1.3,0.1 2,0.2l0.4,0c0.8,0.1 1.5,0.2 2.2,0.3c1.5,0.2 3,0.4 4.4,0.7c41.9,7.6 75.1,40.1 83.6,81.7c0.2,0.7 0.3,1.5 0.4,2.2c0.3,1.5 0.5,2.9 0.7,4.4c0.1,0.7 0.2,1.5 0.3,2.2l0,0.4c0.1,0.7 0.1,1.3 0.2,2c0,0.3 0.1,0.6 0.1,0.8c0,0.5 0.1,1.1 0.1,1.7c0,0.4 0,0.8 0.1,1.1c0,0.5 0,0.9 0.1,1.4c0,0.4 0,0.9 0.1,1.3l0,3.5c0,41.8 -24.5,77.8 -59.9,94.6c-4.8,2.3 -3.2,9.6 2.2,9.6l1030.3,0c53.4,-4.7 95.2,-49.5 95.2,-104.2c0.1,-54.4 -41.7,-99.2 -95.1,-103.9z" class="st0"/>
  <path fill="#fff" id="Layer_8" d="m577.5,425.7c-5.4,0 -7,-7.3 -2.2,-9.6c35.4,-16.8 59.9,-52.8 59.9,-94.6l0,-3.5c0,-0.4 0,-0.9 -0.1,-1.3c0,-0.5 0,-0.9 -0.1,-1.4c0,-0.4 0,-0.8 -0.1,-1.1c0,-0.6 -0.1,-1.1 -0.1,-1.7c0,-0.3 0,-0.6 -0.1,-0.8c-0.1,-0.7 -0.1,-1.3 -0.2,-2l0,-0.4c-0.1,-0.8 -0.2,-1.5 -0.3,-2.2c-0.2,-1.5 -0.5,-2.9 -0.7,-4.4c-0.1,-0.7 -0.3,-1.5 -0.4,-2.2c-8.6,-41.4 -41.9,-74 -83.6,-81.7c-1.5,-0.3 -2.9,-0.5 -4.4,-0.7c-0.7,-0.1 -1.5,-0.2 -2.2,-0.3l-0.4,0c-0.7,-0.1 -1.3,-0.1 -2,-0.2c-0.3,0 -0.5,0 -0.8,-0.1c-0.5,0 -1.1,-0.1 -1.6,-0.1c-0.4,0 -0.8,0 -1.1,-0.1c-0.5,0 -0.9,-0.1 -1.4,-0.1l-4,0c-58.1,-0.4 -105.3,46.6 -105.3,104.6l0,1277c0,57.8 -46.8,104.6 -104.6,104.6l1067.8,0c57.8,0 104.6,-46.8 104.6,-104.6l0,-1173.1l-916.6,0z" class="st0"/>
  <circle fill="#fff" id="Layer_9" r="104.6" cy="1598.5" cx="321.5" class="st0"/>
  <g id="STROKES">
   <circle id="svg_1" stroke-miterlimit="10" stroke-linejoin="round" stroke-linecap="round" stroke-width="50" stroke="#231f20" fill="none" r="104.6" cy="1598.5" cx="318.64285" class="st1"/>
   <path id="svg_2" stroke-miterlimit="10" stroke-linejoin="round" stroke-linecap="round" stroke-width="50" stroke="#231f20" fill="none" d="m1604.94285,425.7c-3.1,0.3 -6.2,0.4 -9.3,0.4s-6.2,-0.1 -9.3,-0.4l18.6,0z" class="st1"/>
   <path id="svg_3" stroke-miterlimit="10" stroke-linejoin="round" stroke-linecap="round" stroke-width="50" stroke="#231f20" fill="none" d="m1491.04285,425.7l0,1172.8c0,57.8 -46.8,104.6 -104.6,104.6l-1067.8,0c57.8,0 104.6,-46.8 104.6,-104.6l0,-1277" class="st1"/>
   <path id="svg_4" stroke-miterlimit="10" stroke-linejoin="round" stroke-linecap="round" stroke-width="50" stroke="#231f20" fill="none" d="m423.24285,321.5c0,-58.2 47.6,-105.4 106.1,-104.6c56.2,0.8 102.1,46.5 103.1,102.8" class="st1"/>
   <path id="svg_5" stroke-miterlimit="10" stroke-linejoin="round" stroke-linecap="round" stroke-width="50" stroke="#231f20" fill="none" d="m1700.14285,321.5c0,54.6 -41.8,99.4 -95.2,104.2l-1030.3,0c-5.4,0 -7,-7.3 -2.2,-9.6c35.4,-16.8 59.9,-52.8 59.9,-94.6c0,-57.8 -46.8,-104.6 -104.6,-104.6l1067.8,0c3.1,0 6.3,0.1 9.4,0.4c53.4,4.8 95.2,49.6 95.2,104.2z" class="st1"/>
   <path id="svg_6" stroke-miterlimit="10" stroke-linejoin="round" stroke-linecap="round" stroke-width="50" stroke="#231f20" fill="none" d="m1604.94285,217l0,0.4c-3.1,-0.3 -6.2,-0.4 -9.4,-0.4l9.4,0z" class="st1"/>
   <path id="svg_7" stroke-miterlimit="10" stroke-linejoin="round" stroke-linecap="round" stroke-width="50" stroke="#231f20" fill="none" d="m423.24285,1598.5s-56.2,65.7 -104.6,0" class="st1"/>
  </g>
  <g stroke="null">

   <g stroke="null" data-name="Calque 2" id="svg_8">
    <g stroke="null" data-name="Calque 1" id="svg_9">
     <line stroke="#1a1a1a" stroke-width="16px" stroke-linejoin="round" stroke-linecap="round" fill="none" y2="1442.54963" x2="1409.56388" y1="1068.61472" x1="1035.62897" class="cls-1"/>
     <path stroke="null" fill="#1a1a1a" d="m821.30539,599.8724a248.89774,248.89774 0 1 1 -248.89774,248.89774a249.35028,249.35028 0 0 1 248.89774,-248.89774m0,-72.40661a321.30435,321.30435 0 1 0 321.30435,321.30435a321.30435,321.30435 0 0 0 -321.30435,-321.30435z" class="cls-2"/>
    </g>
   </g>
  </g>
  <line id="svg_21" y2="1491.43347" x2="885.72513" y1="1491.43347" x1="514.28482" stroke-width="50" stroke="#231f20" fill="none"/>
 </g>
</svg>